<svg id="Layer_1" data-name="Layer 1" xmlns="http://www.w3.org/2000/svg" viewBox="0 0 263.91 194.54"><defs><style>.cls-1{fill:#9a5524}.cls-2{fill:#ae9b74}</style></defs><path class="cls-1" d="M99.59 70.94a4.8 4.8 0 001.07 1.83 4 4 0 001.76 1.13v.76H90.59v-.82a2.37 2.37 0 001.07-2.9l-1.83-6.73a7.2 7.2 0 01-2.92 3.11 4.67 4.67 0 01-4.13.29 5.75 5.75 0 01-.94-.32l-1 3.65a2.74 2.74 0 00.07 1.73 2.19 2.19 0 001 1.17v.82H74v-.76a4 4 0 001.76-1.13 4.82 4.82 0 001.08-1.83l1.25-4.59a6.84 6.84 0 00-1.35.25 5.56 5.56 0 00-1.42.69V67a7.86 7.86 0 011.48-2.58A6.39 6.39 0 0179 62.7l4.28-16a2.59 2.59 0 00-.1-1.54 2.39 2.39 0 00-1-1.17v-.75h9.94zM83.1 62.7c.59.21 1.14.42 1.67.63a9.36 9.36 0 001.57.47 5.42 5.42 0 001.61.06 4.41 4.41 0 001.7-.6l-3.4-12.46zM122.38 43.25h.44a14.63 14.63 0 014.72.78 8.12 8.12 0 013.08 1.97 6.51 6.51 0 011.57 2.77 7.92 7.92 0 01.19 3.34 8.63 8.63 0 01-1.73 4.44 12.19 12.19 0 01-3.49 3L132 68.3l2.26 4.22a5.17 5.17 0 00.69.88 1.89 1.89 0 00.89.5v.82h-5.17a5.79 5.79 0 01-3.55-1 8.63 8.63 0 01-2.36-2.83l-4.53-8.94c-.63.13-1.26.24-1.89.35s-1.24.2-1.83.28V71a2.86 2.86 0 00.6 1.79 3.13 3.13 0 001.48 1.1v.82h-12.08v-.81a2.9 2.9 0 001.49-1.1 3 3 0 00.57-1.79V47a3 3 0 00-.57-1.79 3.27 3.27 0 00-1.49-1.21v-.75zm-5.86 15.29a11.36 11.36 0 004.72-1 8.16 8.16 0 002.93-2.24 6.49 6.49 0 001.32-2.86 7.06 7.06 0 000-2.9 5.26 5.26 0 00-1.1-2.26 2.72 2.72 0 00-2-1h-5.86zM160.71 43.25l1.07 4.09.38 1.32h-1.33a3.17 3.17 0 00-2.7-1.38H153V71a3 3 0 00.57 1.8 3 3 0 001.51 1.1v.82h-12v-.82a3.06 3.06 0 002-2.9V47.28h-5a3.47 3.47 0 00-2.77 1.38H136l.38-1.32 1.07-4.09zM166.12 74.72h-1.07v-12h1.45a24 24 0 001.57 3.49 11.7 11.7 0 002.39 3.06 9.65 9.65 0 002 1.38 8.39 8.39 0 002.48.85 7.8 7.8 0 002.55 0 4.27 4.27 0 002.21-1A3.77 3.77 0 00181 68a3.4 3.4 0 00-.82-2.62 7.68 7.68 0 00-2.55-1.7c-1.07-.46-2.22-.92-3.43-1.38s-2.46-1-3.72-1.48a14 14 0 01-3.39-2A8.44 8.44 0 01164.7 56a7.93 7.93 0 01-.78-3.46 9.22 9.22 0 01.78-4.15 9.08 9.08 0 012.3-3.13 10.7 10.7 0 013.47-1.95 12.6 12.6 0 014.18-.69 16.32 16.32 0 013.87.44 20.58 20.58 0 013 .94 1.28 1.28 0 00.91-.06 1 1 0 00.54-.69h1.57l2.14 7.87h-3.14a5 5 0 00-1.26-2.18 8.44 8.44 0 00-2.24-1.63 11.34 11.34 0 00-2.7-1 8.89 8.89 0 00-2.74-.19 4.3 4.3 0 00-2.55 1 3 3 0 00-1.1 2 3.06 3.06 0 00.75 2.27 6.61 6.61 0 003.09 1.89c1.51.54 3.08 1.1 4.72 1.66A20.16 20.16 0 01184 57.1a11.79 11.79 0 013.33 3.27 8.58 8.58 0 011.32 4.91 9.3 9.3 0 01-1 4.53 9.48 9.48 0 01-2.74 3.12 11.74 11.74 0 01-3.91 1.79 17.44 17.44 0 01-4.44.57 13.13 13.13 0 01-3.59-.48 27.07 27.07 0 01-3.46-1.22 4.06 4.06 0 00-2-.38c-.72.04-1.18.54-1.39 1.51zM62.9 81.84a32.62 32.62 0 011.6 9.44 30.32 30.32 0 01-1.1 9 22.25 22.25 0 01-3.59 7.36 13.45 13.45 0 01-5.91 4.56 14.48 14.48 0 01-3.66 1 40.92 40.92 0 01-4.21.31H36v-.75a3.22 3.22 0 002.08-3V85.74a3 3 0 00-.6-1.86A3.64 3.64 0 0036 82.72V82h12.1v.76a3.61 3.61 0 00-1.47 1.16 3 3 0 00-.6 1.86v24.74a6.51 6.51 0 004.56-1.55 11.53 11.53 0 003-4.21 24.82 24.82 0 001.67-5.86 47.17 47.17 0 00.6-6.45 47.41 47.41 0 00-.26-6.07 25.41 25.41 0 00-.88-4.69A27.5 27.5 0 0052 75.38a20.39 20.39 0 00-10.74-8.9A25.58 25.58 0 0032.81 65a27.94 27.94 0 00-10.32 1.41 24.2 24.2 0 00-7.78 4.38 23.88 23.88 0 00-5.28 6.32 25.56 25.56 0 00-2.87 7.3 23.82 23.82 0 00-.47 7.34 17.45 17.45 0 001.82 6.42A12 12 0 0012 102.7a11.14 11.14 0 006.32 1.73 10.07 10.07 0 004.34-.91 10.38 10.38 0 005.39-5.63 9 9 0 00.66-3.62 7.46 7.46 0 00-.95-3.4 7.09 7.09 0 00-2.7-2.68 6.75 6.75 0 00-4-.78 5.65 5.65 0 00-3.78 2 6.7 6.7 0 01-.88-4 4.91 4.91 0 011.45-2.92 6.76 6.76 0 013.08-1.67 8.72 8.72 0 013.91-.13 9.77 9.77 0 015.53 2.74 11.56 11.56 0 013 5.07 14.7 14.7 0 01-2 12.08 14.48 14.48 0 01-5.13 4.5 16.28 16.28 0 01-7.93 1.8 19.84 19.84 0 01-9.29-2 15.81 15.81 0 01-6-5.22A17.28 17.28 0 01.2 92.32a23.44 23.44 0 01.44-8.47A29 29 0 0110.78 68a33 33 0 019.57-5.26 36.5 36.5 0 0112.52-2 34.62 34.62 0 0111.34 1.73 28.87 28.87 0 018.71 4.66 28.51 28.51 0 016.17 6.73 32.6 32.6 0 013.81 7.98zM78.19 82v.76a3 3 0 00-1.45 1.13 3.19 3.19 0 00-.56 1.83v24a3.16 3.16 0 00.56 1.82 2.93 2.93 0 001.45 1.14v.75h-12v-.75a2.91 2.91 0 001.51-1.14 3.1 3.1 0 00.57-1.82v-24a3.13 3.13 0 00-.57-1.83 2.94 2.94 0 00-1.51-1.13V82zM83.73 113.43h-1.07v-12h1.45a24.58 24.58 0 001.57 3.5 11.82 11.82 0 002.39 3 9.67 9.67 0 002 1.39 8 8 0 002.48.84 8.09 8.09 0 002.55 0 4.28 4.28 0 002.21-1 3.68 3.68 0 001.25-2.55 3.33 3.33 0 00-.81-2.61 7.53 7.53 0 00-2.55-1.7c-1.05-.3-2.2-.8-3.41-1.3s-2.46-1-3.72-1.48a14.1 14.1 0 01-3.4-2 8.37 8.37 0 01-2.36-2.89 8 8 0 01-.78-3.47A8.83 8.83 0 0184.64 84a11 11 0 013.46-2 12.7 12.7 0 014.19-.69 16.44 16.44 0 013.87.44 20.47 20.47 0 013 1 1.33 1.33 0 00.91-.07 1 1 0 00.54-.69h1.57l2.14 7.87h-3.15a4.84 4.84 0 00-1.25-2.17A8.47 8.47 0 0097.67 86a11.23 11.23 0 00-2.71-1 8.51 8.51 0 00-2.73-.19 4.3 4.3 0 00-2.55 1 2.9 2.9 0 00-.35 4.25A6.45 6.45 0 0092.42 92c1.51.55 3.08 1.1 4.72 1.67a20.14 20.14 0 014.47 2.17 11.79 11.79 0 013.33 3.27 8.58 8.58 0 011.32 4.91 9.19 9.19 0 01-1 4.53 9.34 9.34 0 01-2.73 3.12 11.44 11.44 0 01-3.87 1.79 17.44 17.44 0 01-4.44.57 13.53 13.53 0 01-3.59-.47 28.79 28.79 0 01-3.46-1.23 4.19 4.19 0 00-2-.38c-.77.05-1.23.52-1.44 1.48zM131.88 82l1.12 4.05.38 1.32H132a3.19 3.19 0 00-2.7-1.37h-5.1v23.72a3 3 0 002.08 2.9v.82h-12v-.82a3 3 0 002-2.9V86h-5a3.44 3.44 0 00-2.77 1.38h-1.26l.38-1.32 1.03-4.06zM152.15 82h.44a14.57 14.57 0 014.72.79 8 8 0 013.09 1.92 6.66 6.66 0 011.6 2.73 8.21 8.21 0 01.19 3.33 8.65 8.65 0 01-1.73 4.44 12.08 12.08 0 01-3.5 3l4.85 8.81 2.27 4.22a4.8 4.8 0 00.69.88 1.91 1.91 0 00.88.51v.81h-5.16a5.82 5.82 0 01-3.56-1 8.67 8.67 0 01-2.36-2.84l-4.57-8.94c-.63.12-1.26.24-1.89.34s-1.24.2-1.82.28v8.44a2.85 2.85 0 00.59 1.79 3.15 3.15 0 001.48 1.11v.81h-12.07v-.81a3 3 0 002.07-2.9v-24a3 3 0 00-.56-1.8 3.37 3.37 0 00-1.51-1.16V82zm-5.85 15.3a11.39 11.39 0 004.72-1 8.11 8.11 0 002.92-2.23 6.44 6.44 0 001.33-2.87 7.18 7.18 0 000-2.89 5.19 5.19 0 00-1.1-2.27 2.67 2.67 0 00-2-1h-5.87zM180.91 82v.76a2.94 2.94 0 00-1.44 1.13 3.13 3.13 0 00-.57 1.83v24a3.1 3.1 0 00.57 1.82 2.91 2.91 0 001.44 1.14v.75h-12v-.75a2.87 2.87 0 001.51-1.14 3.1 3.1 0 00.57-1.82v-24a3.13 3.13 0 00-.57-1.83 2.9 2.9 0 00-1.51-1.13V82zM193.13 94.36a16.68 16.68 0 00.12 3.59 19.4 19.4 0 00.82 3.52 16.72 16.72 0 001.48 3.25 10.68 10.68 0 002.23 2.67 8.51 8.51 0 006.23 2.49 12.25 12.25 0 006.49-2.36v3.58a10.47 10.47 0 01-3.4 1.8 18.8 18.8 0 01-4.22.85 24.51 24.51 0 01-4.37 0 18 18 0 01-3.87-.79 13.86 13.86 0 01-6.33-4.25 16.7 16.7 0 01-3.3-6.36 18.39 18.39 0 011.85-13.91 14.93 14.93 0 014.88-5 13.71 13.71 0 017.36-2 14.27 14.27 0 012.05.16c.69.1 1.34.23 1.95.38s1.17.29 1.67.44a9.6 9.6 0 011.2.41c.54.21.83.22.88 0s.1-.45.19-.79h1.44l2.14 7.87h-3.52a7.11 7.11 0 00-3-4.38 6.09 6.09 0 00-4.53-.88 7.4 7.4 0 00-4.28 2.87 11.87 11.87 0 00-2.16 6.84z"/><path class="cls-1" d="M243.23 61.38a20.42 20.42 0 018.05 1.89A21.83 21.83 0 01262.52 75a19.42 19.42 0 011.35 8.49 21.32 21.32 0 01-1.79 7.37 23.69 23.69 0 01-3.93 6.14 22 22 0 01-5.48 4.43 18.71 18.71 0 01-6.42 2.3 17.07 17.07 0 01-6.74-.28 16.84 16.84 0 01-6.48-3.27 16 16 0 01-4.34-5.29 15.54 15.54 0 01-1.7-6.61 11.55 11.55 0 01.5-4.5 12.68 12.68 0 015.13-6.8 10.45 10.45 0 013.87-1.54 9.4 9.4 0 014.19.19 7.47 7.47 0 013.32 1.86 5.58 5.58 0 011.61 3.18 7.22 7.22 0 01-.94 4.38 6.19 6.19 0 00-4.1-2.21 7.31 7.31 0 00-4.4.88 7.21 7.21 0 00-3.31 4 9.74 9.74 0 00-.28 5.19 11.54 11.54 0 002.42 4.91 8.89 8.89 0 004.76 3 11.63 11.63 0 007.2 0 12.92 12.92 0 005.54-3.74 18.24 18.24 0 003.5-6.18 21.5 21.5 0 001.16-7.37 18.13 18.13 0 00-4.15-11.26 16.19 16.19 0 00-4.44-3.72 14.8 14.8 0 00-5.38-1.82 26.26 26.26 0 00-9.22.82 92.7 92.7 0 00-9.85 3.15v39a3 3 0 00.59 1.85 3.58 3.58 0 001.48 1.17v.75h-12v-.75a3.37 3.37 0 001.45-1.17 3.05 3.05 0 00.56-1.85V73.72c-2 .79-4 1.51-5.91 2.14a44.12 44.12 0 01-5.54 1.44 22.47 22.47 0 01-5 .44 10.28 10.28 0 01-4.28-1 9.6 9.6 0 01-3.43-2.87 14.52 14.52 0 01-2.36-5.06l.69-.76a7.61 7.61 0 003.63 3.62 11.6 11.6 0 005.17 1 27.41 27.41 0 006.42-1c2.32-.63 4.76-1.39 7.3-2.27s5.14-1.82 7.8-2.83 5.3-1.92 7.9-2.74a68.2 68.2 0 017.65-1.95 26.39 26.39 0 016.99-.5zM47.88 120.68v.75a3.64 3.64 0 00-1.48 1.17 3 3 0 00-.59 1.85v11.84l8-13.35a3.52 3.52 0 00.1-.41.61.61 0 00-.1-.41 1 1 0 00-.75-.69v-.75h8.81v.75a4.75 4.75 0 00-2.21.66A5.4 5.4 0 0058 123.7l-4.79 8q1.95 4.09 4.38 8.69t5.25 8.94a71.1 71.1 0 006 8 31.24 31.24 0 006.71 5.85 16 16 0 007.24 2.52 12.45 12.45 0 007.64-2.08l.26 1.2a15.45 15.45 0 01-8.56 4.18 17.73 17.73 0 01-8.72-1.3 28.69 28.69 0 01-8.25-5.25 49.9 49.9 0 01-7.08-7.78 63.18 63.18 0 01-4.78-7.39q-2.3-4.08-4.3-8.41l-3.14 5.22v4.34a3.07 3.07 0 00.59 1.83 3.18 3.18 0 001.48 1.13v.76H35.8v-.76a3.13 3.13 0 001.48-1.13 3 3 0 00.6-1.83v-24a3 3 0 00-.6-1.85 3.58 3.58 0 00-1.48-1.17v-.75z"/><path class="cls-1" d="M80.11 120.68v.75a3 3 0 00-1.45 1.13 3.21 3.21 0 00-.56 1.83v24a3.19 3.19 0 00.56 1.83 3 3 0 001.45 1.13v.76h-12v-.76a2.94 2.94 0 001.51-1.13 3.13 3.13 0 00.57-1.83v-24a3.15 3.15 0 00-.57-1.83 2.94 2.94 0 00-1.51-1.13v-.75zM109.38 120.68l1.07 4.09.38 1.32h-1.32a3.21 3.21 0 00-2.71-1.39h-5.1v23.72a3 3 0 00.57 1.8 2.92 2.92 0 001.51 1.11v.82h-12v-.82a3 3 0 001.44-1.11 3 3 0 00.57-1.8V124.7h-5a3.48 3.48 0 00-2.79 1.39h-1.29l.37-1.32 1.07-4.09zM121.46 133.08a17.27 17.27 0 00.13 3.58 19.5 19.5 0 00.82 3.53 16.91 16.91 0 001.48 3.24 10.3 10.3 0 002.23 2.67 8.43 8.43 0 006.23 2.49 12.17 12.17 0 006.49-2.36v3.59a10.64 10.64 0 01-3.4 1.79 18.37 18.37 0 01-4.22.85 22.77 22.77 0 01-4.37 0 18.21 18.21 0 01-3.88-.79 13.94 13.94 0 01-6.32-4.24 16.72 16.72 0 01-3.31-6.36 18.43 18.43 0 011.86-13.91 14.87 14.87 0 014.88-5 13.68 13.68 0 017.36-2 14.35 14.35 0 012.05.15c.69.11 1.34.23 1.95.38s1.16.29 1.67.44a10.52 10.52 0 011.19.41c.55.21.84.22.89 0s.1-.45.18-.78h1.45l2.14 7.86h-3.52a7.1 7.1 0 00-3-4.37 6 6 0 00-4.53-.88 7.4 7.4 0 00-4.29 2.86 12 12 0 00-2.16 6.85zM170.87 122.53a3.17 3.17 0 00-.56 1.86v24a3.19 3.19 0 00.56 1.83 3 3 0 001.51 1.13v.76h-12v-.76a3 3 0 001.45-1.13 3.13 3.13 0 00.57-1.83v-9.82a5.15 5.15 0 01-4.26.32l-2.84-1a5.19 5.19 0 00-2.72-.22v10.76a3.07 3.07 0 00.59 1.83 3.18 3.18 0 001.48 1.13v.76h-12.1v-.76a3.13 3.13 0 001.48-1.13 3 3 0 00.6-1.83v-24a3 3 0 00-.6-1.86 3.2 3.2 0 00-1.48-1.1v-.75h12.08v.75a3.25 3.25 0 00-1.48 1.1 3.06 3.06 0 00-.59 1.86l-.07 10.51a5.78 5.78 0 012.58-1.42 5.63 5.63 0 013 .16l2.26.82a8.65 8.65 0 002 .5v-10.61a3.11 3.11 0 00-.57-1.86 3 3 0 00-1.45-1.1v-.75h12v.75a3 3 0 00-1.44 1.1zM194.16 120.68l1.14 4 .5 2.08h-1.32a3.2 3.2 0 00-1.1-1.48 3 3 0 00-1.86-.6h-5.67v10a5.94 5.94 0 012.36-1.1 4.93 4.93 0 012.74.22l1.92.72a8.26 8.26 0 001.8.47 5.21 5.21 0 001.76 0 5.36 5.36 0 001.95-.85v.38a8.24 8.24 0 01-1.2 2.2 6.26 6.26 0 01-1.73 1.61 5.87 5.87 0 01-2.14.79 4.61 4.61 0 01-2.36-.26c-1-.33-1.84-.65-2.64-.94a5.58 5.58 0 00-2.46-.32v10.52h6a3 3 0 001.83-.6 3.13 3.13 0 001.13-1.48h1.32l-1.63 6.1h-18.65v-.75a3.11 3.11 0 001.47-1.13 3 3 0 00.6-1.83v-24a3 3 0 00-.6-1.86 3.17 3.17 0 00-1.47-1.1v-.75zM206.75 150.26a3 3 0 001.45 1.13v.76H200v-.76a3.18 3.18 0 001.48-1.13 3.07 3.07 0 00.59-1.83v-24a3.06 3.06 0 00-.59-1.86 3.25 3.25 0 00-1.48-1.1v-.75h11l8.62 23.73v-20a3.17 3.17 0 00-.56-1.86 3.07 3.07 0 00-1.45-1.1v-.75h8.12v.75a3.2 3.2 0 00-1.48 1.1 3 3 0 00-.6 1.86v24a3 3 0 00.6 1.83 3.13 3.13 0 001.48 1.13v.76h-5.29a7.72 7.72 0 01-4.75-1.42 8.3 8.3 0 01-3-3.87l-6.43-17.81v19.38a3.13 3.13 0 00.49 1.81z"/><path class="cls-2" d="M132.83 0l3.59 7.28 8.03 1.16-5.81 5.66 1.37 8-7.18-3.78-7.18 3.78 1.37-8-5.81-5.66 8.03-1.16L132.83 0zM95.2 177c.26 2.72 2.36 4.32 5.37 4.32a9.25 9.25 0 002.6-.38c1.5-3.22 2.72-6.68 4-9.14a4.07 4.07 0 013.36-2.55 2 2 0 012 2.29c0 4.39-3.94 9-8.28 10.55a26.64 26.64 0 01-3.74 6c2.55 1.83 4.48 3.41 8.35 3.41a5.22 5.22 0 001.91-.29.77.77 0 011 .34.76.76 0 01-.53 1 7.47 7.47 0 01-2.36.38c-4.46 0-6.85-1.91-9.5-3.79a8.16 8.16 0 01-5.63 2.31c-2.53 0-5.2-1.05-5.2-3.46 0-1.65 1.48-3.27 4.13-3.27 2.26 0 4.51 1.22 6.58 2.55a21.41 21.41 0 003.1-4.7 11.65 11.65 0 01-1.83.17c-4 0-6.61-2.2-6.78-5.73a.77.77 0 01.72-.86c.44-.01.68.37.73.85zm3 11.31c-1.81-1.17-3.72-2.17-5.53-2.17S90 187.07 90 188c0 1.48 2 2 3.74 2a6.77 6.77 0 004.46-1.67zm6.9-8.11c3.25-1.62 6-5.3 6-8.59 0-.64-.29-.95-.72-.95s-1.36.59-2 1.76c-.96 2-1.99 4.87-3.28 7.8z"/><path class="cls-2" d="M112.34 189.17a1.77 1.77 0 01-1.39-.72 2.88 2.88 0 01-2 .67 2.18 2.18 0 01-1.84-2.89l1.22-3.46a3.32 3.32 0 013.31-2.1 2.1 2.1 0 011.55 2.84l-1.09 3.08c-.17.67.09 1.15.54 1.15a1.66 1.66 0 001.46-1.27c.41-1 1.5-.88 1.19.22a3.49 3.49 0 01-2.95 2.48zm-1.34-7.25a1.36 1.36 0 00-1.24.93l-1.31 3.65a1 1 0 00.76 1.33 1.33 1.33 0 001.41-.88l1.38-3.65a1 1 0 00-1-1.38z"/><path class="cls-2" d="M117.42 181.18a2.71 2.71 0 00.57 2.48c1.63 2.65 1 3.82.39 4.65a2.43 2.43 0 01-3.3.62c-.57-.33 0-1.36.69-1a1.35 1.35 0 001.89-.81c.43-.93-.41-2.22-1.24-3.41l-1.07 3a.62.62 0 11-1.17-.43l1.93-5.3a1 1 0 01.88-.62c.31.05.48.34.43.82zM148.59 174.73c0 8.52-6.33 18.5-11.36 18.5-2.86 0-4-2.08-4-5 0-4.65 2.84-11.48 5.7-15.22a14 14 0 00-3.55-.46c-5.25 0-9.53 3.84-9.53 8.88a7.14 7.14 0 002.2 5.13 1.22 1.22 0 01.48.81.42.42 0 01-.15.31.81.81 0 01-.54.24.78.78 0 01-.43-.14 8.06 8.06 0 01-3-6.28c0-6.13 5.21-10.26 11.48-10.26a20.51 20.51 0 013.84.38c.93.22 1 .6 1 .91a1 1 0 01-.17.57c-3.2 4-5.8 10.67-5.8 14.84 0 2.22.72 3.72 2.46 3.82 3.48 0 9.88-8.76 9.88-16.61a11.07 11.07 0 00-1.74-6.23.73.73 0 01-.14-.45.88.88 0 01.28-.62l.07-.07a.67.67 0 01.48-.19.85.85 0 01.72.43 12.56 12.56 0 011.82 6.71zM150.34 189.34c-2.22-.1-3.3-1.79-2.58-4.08l.62-2a3.26 3.26 0 013.1-2.61c1.51 0 2.13 1.41 1.67 2.73a4.46 4.46 0 01-4.29 3.24c-.05 2.15 3.65 2 4.94-.26.55-1 1.57-.24 1.07.55a4.94 4.94 0 01-4.53 2.43zm1.52-6c.12-.38.29-1.29-.69-1.29-.79 0-1.24.6-1.5 1.41l-.65 1.91a2.78 2.78 0 002.84-2.07z"/><path class="cls-2" d="M156.92 191.34c-.85 2.48-2 3.27-3.6 3.2a2.34 2.34 0 01-2.15-2.91 2.57 2.57 0 012.84-2.1.63.63 0 11-.07 1.26c-2 0-1.93 2.48-.38 2.48.88 0 1.6-.78 2.08-2l.93-2.4a2 2 0 01-2.7-2.46l1.24-3.65c.69-2.06 2.51-2.56 3.94-1.58.48-.91 1.62-.43 1.26.55zm1.56-8.16c.54-1.55-1.51-1.81-2-.43l-1.36 3.79c-.36 1.51 1.6 1.72 2 .46zM165.21 189.17a1.77 1.77 0 01-1.39-.72 2.88 2.88 0 01-1.95.67 2.18 2.18 0 01-1.84-2.89l1.22-3.46a3.32 3.32 0 013.31-2.1 2.1 2.1 0 011.55 2.84l-1.11 3.08c-.17.67.09 1.15.54 1.15a1.66 1.66 0 001.46-1.27c.41-1 1.5-.88 1.19.22a3.49 3.49 0 01-2.98 2.48zm-1.34-7.25a1.36 1.36 0 00-1.24.93l-1.31 3.65a1 1 0 00.76 1.33 1.33 1.33 0 001.41-.88l1.33-3.65a1 1 0 00-.95-1.38z"/><path class="cls-2" d="M170.29 181.18a2.71 2.71 0 00.57 2.48c1.63 2.65 1 3.82.39 4.65a2.43 2.43 0 01-3.3.62c-.57-.33 0-1.36.69-1a1.35 1.35 0 001.89-.81c.43-.93-.41-2.22-1.24-3.41l-1.07 3a.62.62 0 11-1.17-.43L169 181a1 1 0 01.88-.62c.29.03.46.32.41.8z"/></svg>